<?xml version="1.0" encoding="UTF-8"?>
<svg version="1.1" xmlns="http://www.w3.org/2000/svg" width="500" height="500">
<path d="M0 0 C6.68993219 0.53951066 12.63460728 1.88706171 19 4 C19 4.66 19 5.32 19 6 C19.5775 6.061875 20.155 6.12375 20.75 6.1875 C24.06985547 7.3863367 25.11292988 9.03296393 27 12 C27.35501754 14.88919728 27.49275395 17.38031689 27.42578125 20.2578125 C27.42249313 21.04268036 27.41920502 21.82754822 27.41581726 22.63619995 C27.40542799 24.28863876 27.3855316 25.94104198 27.35668945 27.59326172 C27.31252485 30.12357624 27.29523514 32.65294102 27.28320312 35.18359375 C27.26978155 36.79168037 27.25485927 38.39975532 27.23828125 40.0078125 C27.23089432 40.76409943 27.22350739 41.52038635 27.21589661 42.29959106 C27.15847195 45.45098573 27.00353553 47.98939341 26 51 C26.99 51 27.98 51 29 51 C28.67 50.01 28.34 49.02 28 48 C27.87923678 45.31558003 27.81190206 42.65788932 27.796875 39.97265625 C27.79117493 39.18733017 27.78547485 38.40200409 27.77960205 37.59288025 C27.7701626 35.93278344 27.76362226 34.27266799 27.75976562 32.61254883 C27.75004922 30.07535149 27.71901256 27.53896078 27.6875 25.00195312 C27.68097062 23.38802564 27.6757199 21.77409237 27.671875 20.16015625 C27.6595282 19.4027565 27.6471814 18.64535675 27.63446045 17.86500549 C27.64817568 14.61677455 27.8017415 12.35659476 29.39550781 9.48999023 C31 8 31 8 33 8 C33 7.34 33 6.68 33 6 C39.51538895 2.50961306 46.36846729 -0.89782738 54 0 C56.45527179 2.45527179 56.24542215 3.82875615 56.27789307 7.18101501 C56.2738446 7.883116 56.26979614 8.58521698 56.265625 9.30859375 C56.26753845 10.03111832 56.2694519 10.75364288 56.27142334 11.49806213 C56.27278504 13.02711332 56.26908964 14.55617607 56.26074219 16.08520508 C56.25005751 18.42490684 56.2606295 20.76383807 56.2734375 23.10351562 C56.2721156 24.58854336 56.26955257 26.07357062 56.265625 27.55859375 C56.26967346 28.2586705 56.27372192 28.95874725 56.27789307 29.68003845 C56.24257654 33.34373296 56.08995623 34.86506566 54 38 C53.01 38 52.02 38 51 38 C51 38.66 51 39.32 51 40 C52.32 40 53.64 40 55 40 C55.125 45.75 55.125 45.75 54 48 C51.953125 48.2734375 51.953125 48.2734375 49.25 48.375 C44.61829388 48.68819729 40.70436044 49.62859014 36.3125 51.125 C28.26408297 53.73812241 23.25367546 52.50731415 15.4453125 49.69140625 C11.76451776 48.65067036 8.09330623 48.48534333 4.28515625 48.30859375 C2 48 2 48 0 46 C-0.125 42.875 -0.125 42.875 0 40 C1.65 40 3.3 40 5 40 C5 39.34 5 38.68 5 38 C3.01432292 38.06510417 1.02864583 38.13020833 -0.95703125 38.1953125 C-3 38 -3 38 -6 36 C-5.67 34.68 -5.34 33.36 -5 32 C1.27 32 7.54 32 14 32 C14 31.01 14 30.02 14 29 C9.38 29 4.76 29 0 29 C0 26.69 0 24.38 0 22 C-1.134375 21.855625 -2.26875 21.71125 -3.4375 21.5625 C-7 21 -7 21 -8 20 C-8.04063832 18.33382885 -8.042721 16.66611905 -8 15 C-5.36 14.67 -2.72 14.34 0 14 C-0.08378906 13.15695313 -0.16757813 12.31390625 -0.25390625 11.4453125 C-0.35574219 10.34960938 -0.45757812 9.25390625 -0.5625 8.125 C-0.66691406 7.03445312 -0.77132812 5.94390625 -0.87890625 4.8203125 C-1 2 -1 2 0 0 Z M8 13 C7.67 13.66 7.34 14.32 7 15 C8.65 14.67 10.3 14.34 12 14 C10.68 13.67 9.36 13.34 8 13 Z M4 21 C4 21.66 4 22.32 4 23 C4.99 23 5.98 23 7 23 C7 22.34 7 21.68 7 21 C6.01 21 5.02 21 4 21 Z M9 39 C10 41 10 41 10 41 Z M41.8125 40.5 C40.73935547 40.91765625 40.73935547 40.91765625 39.64453125 41.34375 C39.10183594 41.5603125 38.55914062 41.776875 38 42 C38.33 42.66 38.66 43.32 39 44 C43.95 42.515 43.95 42.515 49 41 C49 40.34 49 39.68 49 39 C46.04725901 39 44.50941597 39.43891831 41.8125 40.5 Z M11 40 C12 42 12 42 12 42 Z M13 42 C13.515625 42.2475 14.03125 42.495 14.5625 42.75 C17.77184151 44.39581616 20.87585664 46.1976096 24 48 C24 47.34 24 46.68 24 46 C23.34 46 22.68 46 22 46 C22 45.34 22 44.68 22 44 C18.86501708 42.14223235 16.62528568 41.79859524 13 42 Z M36 43 C34.35 44.32 32.7 45.64 31 47 C33.16874252 46.49396008 34.99967627 46.00016187 37 45 C36.67 44.34 36.34 43.68 36 43 Z " fill="#EBEBEB" transform="translate(129,223)"/>
<path d="M0 0 C2.45527179 2.45527179 2.24542215 3.82875615 2.27789307 7.18101501 C2.2738446 7.883116 2.26979614 8.58521698 2.265625 9.30859375 C2.26753845 10.03111832 2.2694519 10.75364288 2.27142334 11.49806213 C2.27278504 13.02711332 2.26908964 14.55617607 2.26074219 16.08520508 C2.25005751 18.42490684 2.2606295 20.76383807 2.2734375 23.10351562 C2.2721156 24.58854336 2.26955257 26.07357062 2.265625 27.55859375 C2.26967346 28.2586705 2.27372192 28.95874725 2.27789307 29.68003845 C2.24257654 33.34373296 2.08995623 34.86506566 0 38 C-2.32622311 38.37979153 -4.66175408 38.70307988 -7 39 C-10.06410733 39.8240031 -13.10219178 40.70033923 -16 42 C-16.33 42.66 -16.66 43.32 -17 44 C-19.62581138 45.57548683 -20.87099787 46 -24 46 C-24 46.66 -24 47.32 -24 48 C-24.66 48 -25.32 48 -26 48 C-26.07422923 42.94632167 -26.12863915 37.8929616 -26.16479492 32.83886719 C-26.17986933 31.12006095 -26.20033229 29.40129309 -26.22631836 27.68261719 C-26.26276165 25.21019003 -26.27973958 22.738272 -26.29296875 20.265625 C-26.30845261 19.49881409 -26.32393646 18.73200317 -26.33988953 17.94195557 C-26.34091972 14.66649528 -26.20923472 12.37792036 -24.60668945 9.48339844 C-23 8 -23 8 -21 8 C-21 7.34 -21 6.68 -21 6 C-14.48461105 2.50961306 -7.63153271 -0.89782738 0 0 Z " fill="#EBEBEB" transform="translate(183,223)"/>
<path d="M0 0 C2.96213621 2.35451853 3.84417094 4.05437065 4.45703125 7.7734375 C4.72166829 10.51860578 4.90347548 13.24422505 5 16 C6.32 14.68 7.64 13.36 9 12 C8.34 11.34 7.68 10.68 7 10 C6.73008094 7.31160615 6.91262643 4.70858064 7 2 C7.66 2 8.32 2 9 2 C9 1.34 9 0.68 9 0 C15.07806891 -1.79172099 19.03241883 -2.28545662 25 0 C25.125 2.875 25.125 2.875 25 6 C24.34 6.66 23.68 7.32 23 8 C23.515625 8.515625 24.03125 9.03125 24.5625 9.5625 C26 12 26 12 25.9375 15.5625 C24.88197153 19.43277105 24.37363925 20.06477886 21 22 C15.99785459 22.76038574 11.40542728 22.66137754 6.8125 20.5 C6.214375 20.005 5.61625 19.51 5 19 C4.67 19.99 4.34 20.98 4 22 C1.06195004 22.08086376 -1.87388075 22.1404283 -4.8125 22.1875 C-5.64587891 22.21263672 -6.47925781 22.23777344 -7.33789062 22.26367188 C-8.54155273 22.27817383 -8.54155273 22.27817383 -9.76953125 22.29296875 C-10.87711792 22.31653442 -10.87711792 22.31653442 -12.00708008 22.34057617 C-14.55717844 21.90478207 -15.42144087 21.007213 -17 19 C-17.55558365 16.29833834 -17.44170345 13.71817511 -17 11 C-15.5 9 -15.5 9 -14 8 C-14.350625 7.4225 -14.70125 6.845 -15.0625 6.25 C-16.14917407 3.64198224 -15.93065133 2.60582371 -15 0 C-9.47804619 -2.07073268 -5.4822814 -2.45510863 0 0 Z M-10 5 C-6 6 -6 6 -6 6 Z M-13 6 C-13 6.66 -13 7.32 -13 8 C-12.34 8 -11.68 8 -11 8 C-11 7.34 -11 6.68 -11 6 C-11.66 6 -12.32 6 -13 6 Z M-5 6 C-4 8 -4 8 -4 8 Z M-8 13 C-7.67 13.99 -7.34 14.98 -7 16 C-6.34 16 -5.68 16 -5 16 C-5.33 15.01 -5.66 14.02 -6 13 C-6.66 13 -7.32 13 -8 13 Z M13 14 C12.67 14.66 12.34 15.32 12 16 C12.99 16 13.98 16 15 16 C15 15.34 15 14.68 15 14 C14.34 14 13.68 14 13 14 Z " fill="#CCCDCC" transform="translate(345,240)"/>
<path d="M0 0 C0.91587891 -0.020625 1.83175781 -0.04125 2.77539062 -0.0625 C3.66033203 -0.06765625 4.54527344 -0.0728125 5.45703125 -0.078125 C6.26760986 -0.0874707 7.07818848 -0.09681641 7.91333008 -0.10644531 C10.74272594 0.33702414 12.10139187 1.31971884 14.1875 3.25 C15.26535661 6.31774572 15.20383137 8.15927015 14.625 11.375 C13.8282419 14.44080542 13.8282419 14.44080542 16.1875 17.25 C16.85842652 23.40015974 16.85842652 23.40015974 14.3125 26.625 C11.17649031 29.02312506 9.5044377 29.3722591 5.6171875 29.34765625 C4.72128906 29.34443359 3.82539063 29.34121094 2.90234375 29.33789062 C1.96519531 29.32951172 1.02804688 29.32113281 0.0625 29.3125 C-0.88238281 29.30798828 -1.82726562 29.30347656 -2.80078125 29.29882812 C-5.13808387 29.28702357 -7.47526061 29.27055759 -9.8125 29.25 C-9.97979064 25.28092526 -10.14038226 21.31164279 -10.29467773 17.34204102 C-10.34815802 15.99072921 -10.40349194 14.63948948 -10.46069336 13.28833008 C-10.54243571 11.34997011 -10.61703323 9.41131296 -10.69140625 7.47265625 C-10.7385376 6.30484619 -10.78566895 5.13703613 -10.83422852 3.93383789 C-10.78703493 -1.8953648 -4.56366404 0.02537131 0 0 Z M-1.8125 6.25 C-1.8125 7.9 -1.8125 9.55 -1.8125 11.25 C0.8275 11.25 3.4675 11.25 6.1875 11.25 C6.77820014 9.30396726 6.77820014 9.30396726 7.1875 7.25 C6.20482141 6.04438816 6.20482141 6.04438816 4.33984375 6.15234375 C2.2890625 6.18489583 0.23828125 6.21744792 -1.8125 6.25 Z M-1.8125 17.25 C-1.8125 18.9 -1.8125 20.55 -1.8125 22.25 C1.4875 22.25 4.7875 22.25 8.1875 22.25 C7.8575 20.6 7.5275 18.95 7.1875 17.25 C4.2175 17.25 1.2475 17.25 -1.8125 17.25 Z " fill="#DCDCDC" transform="translate(207.8125,232.75)"/>
<path d="M0 0 C2.64 0 5.28 0 8 0 C8.33 4.29 8.66 8.58 9 13 C9.804375 12.175 10.60875 11.35 11.4375 10.5 C14.92918765 7.52746015 17.79502351 7.56736934 22.2421875 7.82421875 C22.82226562 7.88222656 23.40234375 7.94023437 24 8 C22.17495091 11.92300272 19.81729174 14.73787272 17 18 C19.64 21.63 22.28 25.26 25 29 C24.67 29.66 24.34 30.32 24 31 C18.79636835 31.61738003 18.79636835 31.61738003 16 31 C14.28658541 29.30359201 13.19537587 27.62401902 12.0078125 25.53125 C11.67523438 25.0259375 11.34265625 24.520625 11 24 C10.34 24 9.68 24 9 24 C8.67 26.31 8.34 28.62 8 31 C5.66705225 31.04241723 3.33297433 31.04092937 1 31 C0 30 0 30 -0.11352539 27.13256836 C-0.10828857 25.88096924 -0.10305176 24.62937012 -0.09765625 23.33984375 C-0.0962413 22.67537735 -0.09482635 22.01091095 -0.09336853 21.3263092 C-0.08775518 19.19666101 -0.07520054 17.06711661 -0.0625 14.9375 C-0.05748671 13.49674631 -0.05292351 12.05599097 -0.04882812 10.61523438 C-0.03778145 7.07678898 -0.02050792 3.53840461 0 0 Z " fill="#D3D3D2" transform="translate(278,231)"/>
<path d="M0 0 C2.90527374 1.87373834 5.42661541 3.85323082 7 7 C7.54790634 11.57187419 7.64229075 14.95904603 5.1875 18.9375 C1.74771153 22.18072913 -0.27461161 23.27804745 -4.9375 23.25 C-5.79214844 23.25515625 -6.64679688 23.2603125 -7.52734375 23.265625 C-10.11974567 22.98713633 -11.76514234 22.30669172 -14 21 C-14 20.34 -14 19.68 -14 19 C-14.66 19 -15.32 19 -16 19 C-18.23774069 14.65615043 -18.09652257 11.72348183 -17 7 C-15.46254774 3.24178337 -14.30499065 2.17595614 -10.75 0.125 C-6.48560758 -1.15431773 -4.26488674 -1.24069433 0 0 Z M-9 7 C-10.01370127 9.82962329 -10.01370127 9.82962329 -10 13 C-8.18712805 15.39795381 -8.18712805 15.39795381 -6 17 C-4.35 16.34 -2.7 15.68 -1 15 C-0.74984127 11.58357241 -0.74984127 11.58357241 -1 8 C-4.22775842 5.84816105 -5.49103862 5.24551931 -9 7 Z " fill="#D2D2D1" transform="translate(243,239)"/>
<path d="M0 0 C0.99 0.33 1.98 0.66 3 1 C3 1.66 3 2.32 3 3 C3.66 3 4.32 3 5 3 C5 3.66 5 4.32 5 5 C5.66 5 6.32 5 7 5 C8.0031614 10.015807 8.22940433 13.33851822 6 18 C4.0625 20.875 4.0625 20.875 1 23 C-4.16868981 23.89383358 -8.46681847 23.87610373 -13.0625 21.25 C-15.99712748 17.8420455 -16.89954956 16.10495489 -17.3125 11.5625 C-16.97426877 7.70666403 -16.40978135 5.99145272 -14 3 C-8.74550715 -0.58843414 -6.30875823 -1.10679969 0 0 Z M-7.6875 7.1875 C-9.1838004 8.97521865 -9.1838004 8.97521865 -9.4375 11.5 C-9.23589119 14.15906454 -9.23589119 14.15906454 -7 15.8125 C-6.34 16.204375 -5.68 16.59625 -5 17 C-2.3094472 15.77992056 -2.3094472 15.77992056 0 14 C0.33340471 11.04195427 0.33340471 11.04195427 0 8 C-3.79087932 5.46277491 -3.79087932 5.46277491 -7.6875 7.1875 Z " fill="#D2D2D2" transform="translate(268,239)"/>
<path d="M0 0 C7.26 0 14.52 0 22 0 C22 1.98 22 3.96 22 6 C17.05 6 12.1 6 7 6 C7 7.98 7 9.96 7 12 C11.29 12 15.58 12 20 12 C20 14.31 20 16.62 20 19 C15.71 19 11.42 19 7 19 C7 22.3 7 25.6 7 29 C4.69 29 2.38 29 0 29 C0 19.43 0 9.86 0 0 Z " fill="#E4E4E4" transform="translate(305,233)"/>
<path d="M0 0 C1.32 0 2.64 0 4 0 C4 0.66 4 1.32 4 2 C5.32 2 6.64 2 8 2 C8.125 7.75 8.125 7.75 7 10 C4.953125 10.2734375 4.953125 10.2734375 2.25 10.375 C-2.38170612 10.68819729 -6.29563956 11.62859014 -10.6875 13.125 C-18.73591703 15.73812241 -23.74632454 14.50731415 -31.5546875 11.69140625 C-35.23548224 10.65067036 -38.90669377 10.48534333 -42.71484375 10.30859375 C-45 10 -45 10 -47 8 C-47.125 4.875 -47.125 4.875 -47 2 C-40.375 1.875 -40.375 1.875 -37 3 C-37 2.34 -37 1.68 -37 1 C-36.34 1.33 -35.68 1.66 -35 2 C-35.33 2.66 -35.66 3.32 -36 4 C-35.01 4.226875 -34.02 4.45375 -33 4.6875 C-28.57643649 5.94491376 -24.57576049 8.10224085 -21 11 C-21 11.66 -21 12.32 -21 13 C-20.01 13 -19.02 13 -18 13 C-17.67 11.35 -17.34 9.7 -17 8 C-16.360625 7.9175 -15.72125 7.835 -15.0625 7.75 C-12.26634749 7.06522796 -10.08756879 6.16000746 -7.5 4.9375 C-4.1789897 3.40174065 -1.72377798 2.51951252 2 3 C2 2.34 2 1.68 2 1 C1.34 0.67 0.68 0.34 0 0 Z " fill="#CFD0D0" transform="translate(176,261)"/>
<path d="M0 0 C2.31 0 4.62 0 7 0 C7 1.32 7 2.64 7 4 C8.98 4 10.96 4 13 4 C13 5.98 13 7.96 13 10 C11.35 10.33 9.7 10.66 8 11 C8 13.64 8 16.28 8 19 C9.65 19.33 11.3 19.66 13 20 C13.38133299 21.9914056 13.71325582 23.99279077 14 26 C12.42077594 27.57922406 10.80556126 27.207659 8.625 27.25 C7.83351563 27.27578125 7.04203125 27.3015625 6.2265625 27.328125 C3.47285965 26.92231616 2.66728342 26.18894879 1 24 C-0.00496852 20.98509443 -0.10335303 18.95818308 -0.0625 15.8125 C-0.05347656 14.91144531 -0.04445313 14.01039063 -0.03515625 13.08203125 C-0.02355469 12.39496094 -0.01195312 11.70789063 0 11 C-0.99 11 -1.98 11 -3 11 C-3 8.69 -3 6.38 -3 4 C-2.01 4 -1.02 4 0 4 C0 2.68 0 1.36 0 0 Z " fill="#D8D8D8" transform="translate(374,235)"/>
<path d="M0 0 C0.3125 2.6875 0.3125 2.6875 0 6 C-2.5 8.6875 -2.5 8.6875 -5 11 C-5 11.99 -5 12.98 -5 14 C-5.66 14.99 -6.32 15.98 -7 17 C-11.20417542 17.4671306 -14.19788277 16.78923164 -18 15 C-17.01 13.515 -17.01 13.515 -16 12 C-16.66 11.34 -17.32 10.68 -18 10 C-18.26991906 7.31160615 -18.08737357 4.70858064 -18 2 C-17.34 2 -16.68 2 -16 2 C-16 1.34 -16 0.68 -16 0 C-10.27304317 -2.71276903 -5.87042768 -1.50821265 0 0 Z M-12 14 C-12.33 14.66 -12.66 15.32 -13 16 C-12.01 16 -11.02 16 -10 16 C-10 15.34 -10 14.68 -10 14 C-10.66 14 -11.32 14 -12 14 Z " fill="#C9CBCC" transform="translate(370,240)"/>
<path d="M0 0 C0.66 0.33 1.32 0.66 2 1 C1.67 1.66 1.34 2.32 1 3 C2.5159375 3.3403125 2.5159375 3.3403125 4.0625 3.6875 C8.4565618 4.93397876 11.47425613 7.12184173 15 10 C15 10.66 15 11.32 15 12 C13.3745692 11.85904936 11.74965949 11.71207913 10.125 11.5625 C9.22007812 11.48128906 8.31515625 11.40007812 7.3828125 11.31640625 C5 11 5 11 3 10 C0.17956274 9.72579082 -2.64053047 9.5538093 -5.46875 9.37890625 C-8 9 -8 9 -10 7 C-10.125 3.875 -10.125 3.875 -10 1 C-3.375 0.875 -3.375 0.875 0 2 C0 1.34 0 0.68 0 0 Z " fill="#D0D1D2" transform="translate(139,262)"/>
<path d="M0 0 C1.65 0.33 3.3 0.66 5 1 C5.8125 4.1875 5.8125 4.1875 6 8 C4.25 10.9375 4.25 10.9375 1 13 C-4.23065335 13.73198647 -8.53598553 13.97600965 -13 11 C-13 9.35 -13 7.7 -13 6 C-9.37 6.33 -5.74 6.66 -2 7 C0.2236068 3.2981424 0.2236068 3.2981424 0 0 Z " fill="#D8D8D8" transform="translate(365,249)"/>
<path d="M0 0 C0.99773437 0.02320313 1.99546875 0.04640625 3.0234375 0.0703125 C4.52777344 0.09738281 4.52777344 0.09738281 6.0625 0.125 C6.83335937 0.14820313 7.60421875 0.17140625 8.3984375 0.1953125 C8.0684375 1.1853125 7.7384375 2.1753125 7.3984375 3.1953125 C5.7484375 3.5253125 4.0984375 3.8553125 2.3984375 4.1953125 C2.0684375 5.5153125 1.7384375 6.8353125 1.3984375 8.1953125 C3.0484375 8.5253125 4.6984375 8.8553125 6.3984375 9.1953125 C6.0684375 10.1853125 5.7384375 11.1753125 5.3984375 12.1953125 C-0.65625 12.390625 -0.65625 12.390625 -2.6015625 12.1953125 C-4.6015625 10.1953125 -4.6015625 10.1953125 -4.8671875 8.3203125 C-4.86203125 7.6190625 -4.856875 6.9178125 -4.8515625 6.1953125 C-4.85671875 5.4940625 -4.861875 4.7928125 -4.8671875 4.0703125 C-4.41065152 0.84770557 -3.1060344 0.23318577 0 0 Z " fill="#E1E2E1" transform="translate(332.6015625,248.8046875)"/>
<path d="M0 0 C1.79133978 -0.05391993 3.58313899 -0.09275571 5.375 -0.125 C6.37273437 -0.14820313 7.37046875 -0.17140625 8.3984375 -0.1953125 C11 0 11 0 13 2 C12.625 5.125 12.625 5.125 12 8 C10.39504433 7.88557539 8.79101881 7.75805306 7.1875 7.625 C6.29417969 7.55539063 5.40085937 7.48578125 4.48046875 7.4140625 C2 7 2 7 -1 5 C-0.67 3.35 -0.34 1.7 0 0 Z " fill="#B9B9B9" transform="translate(113,229)"/>
<path d="M0 0 C1.48693359 0.00386719 1.48693359 0.00386719 3.00390625 0.0078125 C3.99261719 0.00523437 4.98132813 0.00265625 6 0 C8.56640625 0.1328125 8.56640625 0.1328125 10.56640625 1.1328125 C10.89640625 2.7828125 11.22640625 4.4328125 11.56640625 6.1328125 C6.61640625 6.1328125 1.66640625 6.1328125 -3.43359375 6.1328125 C-3.43359375 0.18738714 -3.43359375 0.18738714 0 0 Z " fill="#C6C7C7" transform="translate(116.43359375,245.8671875)"/>
<path d="M0 0 C2.97 0 5.94 0 9 0 C8.67 0.99 8.34 1.98 8 3 C6.824375 3.185625 6.824375 3.185625 5.625 3.375 C2.85942178 3.79117993 2.85942178 3.79117993 1 6 C-0.0625 4.125 -0.0625 4.125 -1 2 C-0.67 1.34 -0.34 0.68 0 0 Z " fill="#F9FCFD" transform="translate(332,249)"/>
<path d="M0 0 C4.62 0 9.24 0 14 0 C13.01 0.33 12.02 0.66 11 1 C11 1.66 11 2.32 11 3 C11.99 3.33 12.98 3.66 14 4 C12.02 4 10.04 4 8 4 C8 5.65 8 7.3 8 9 C7.67 9 7.34 9 7 9 C7 6.69 7 4.38 7 2 C4.69 1.67 2.38 1.34 0 1 C0 0.67 0 0.34 0 0 Z " fill="#8B8D8D" transform="translate(122,243)"/>
<path d="M0 0 C2.31 0 4.62 0 7 0 C6.67 1.65 6.34 3.3 6 5 C3.69 5 1.38 5 -1 5 C-0.67 3.35 -0.34 1.7 0 0 Z M2 1 C2.33 1.99 2.66 2.98 3 4 C3.66 4 4.32 4 5 4 C4.67 3.01 4.34 2.02 4 1 C3.34 1 2.68 1 2 1 Z " fill="#A4A9AD" transform="translate(335,252)"/>
<path d="M0 0 C0.33 0.66 0.66 1.32 1 2 C1.99 2 2.98 2 4 2 C4.33 1.34 4.66 0.68 5 0 C5 0.66 5 1.32 5 2 C6.32 2.33 7.64 2.66 9 3 C7.56465159 3.2226746 6.12654475 3.42761906 4.6875 3.625 C3.88699219 3.74101562 3.08648437 3.85703125 2.26171875 3.9765625 C0 4 0 4 -3 2 C-2.01 2 -1.02 2 0 2 C0 1.34 0 0.68 0 0 Z " fill="#737373" transform="translate(154,272)"/>
<path d="M0 0 C-0.66 0.391875 -1.32 0.78375 -2 1.1875 C-4.29166667 2.85416667 -4.29166667 2.85416667 -4.25 5.6875 C-4.1675 6.450625 -4.085 7.21375 -4 8 C-4.66 7.67 -5.32 7.34 -6 7 C-6.625 3.9375 -6.625 3.9375 -7 1 C-3.375 -1.125 -3.375 -1.125 0 0 Z " fill="#999A98" transform="translate(336,240)"/>
<path d="M0 0 C2.64 0 5.28 0 8 0 C8 0.33 8 0.66 8 1 C5.36 1 2.72 1 0 1 C0 0.67 0 0.34 0 0 Z " fill="#FFFFFF" transform="translate(127,253)"/>
<path d="" fill="#FFFFFF" transform="translate(0,0)"/>
<path d="" fill="#FFFFFF" transform="translate(0,0)"/>
<path d="" fill="#FFFFFF" transform="translate(0,0)"/>
<path d="" fill="#FFFFFF" transform="translate(0,0)"/>
</svg>
