<?xml version="1.0" encoding="UTF-8"?>
<svg version="1.1" xmlns="http://www.w3.org/2000/svg" width="500" height="500">
<path d="M0 0 C6.68993219 0.53951066 12.63460728 1.88706171 19 4 C19 4.66 19 5.32 19 6 C19.5775 6.061875 20.155 6.12375 20.75 6.1875 C24.07175754 7.38702356 25.11425573 9.02939067 27 12 C27.34307585 14.90157319 27.4695605 17.40483441 27.390625 20.29296875 C27.38496521 21.08020828 27.37930542 21.86744781 27.37347412 22.67854309 C27.35117516 25.18216039 27.30102146 27.68431971 27.25 30.1875 C27.22992401 31.88214059 27.21167516 33.57680387 27.1953125 35.27148438 C27.1505151 39.51482604 27.07801009 43.75715142 27 48 C27 48.66 27 49.32 27 50 C27.33 50 27.66 50 28 50 C27.97381592 48.88028809 27.94763184 47.76057617 27.9206543 46.60693359 C27.82987128 42.43623996 27.77264939 38.26563291 27.7253418 34.09423828 C27.70026134 32.29200534 27.66618812 30.48987349 27.62280273 28.68798828 C27.5618625 26.09121723 27.53372654 23.49579535 27.51171875 20.8984375 C27.48591232 20.0982016 27.4601059 19.2979657 27.43351746 18.47348022 C27.43146508 14.3414269 27.74910928 11.79221356 30.40600586 8.53076172 C36.18751954 2.89018093 43.84070036 0.20125643 51.875 -0.1875 C55 0 55 0 56 1 C56.11330567 3.48586927 56.16417337 5.94290852 56.16796875 8.4296875 C56.17296135 9.54889084 56.17296135 9.54889084 56.17805481 10.69070435 C56.18312755 12.27280052 56.18546303 13.85490742 56.18530273 15.43701172 C56.18748461 17.85792737 56.2056234 20.2783841 56.22460938 22.69921875 C56.22754414 24.23437344 56.22952838 25.7695303 56.23046875 27.3046875 C56.23765427 28.02977509 56.24483978 28.75486267 56.25224304 29.50192261 C56.23533409 33.22405059 56.12038582 34.81942127 54 38 C52.21240234 38.79956055 52.21240234 38.79956055 50.0859375 39.38671875 C49.32539063 39.60263672 48.56484375 39.81855469 47.78125 40.04101562 C46.9871875 40.25435547 46.193125 40.46769531 45.375 40.6875 C44.57320312 40.91244141 43.77140625 41.13738281 42.9453125 41.36914062 C40.9663195 41.92278748 38.98349746 42.46271429 37 43 C38.92288408 43 40.8166077 42.09004945 42.625 41.5 C46.97174195 40.16974708 50.48219909 39.70536081 55 40 C56.2077558 43.62326739 55.54311128 44.64146369 54 48 C53.34515625 48.02578125 52.6903125 48.0515625 52.015625 48.078125 C46.60368993 48.41445995 42.02577693 49.21112152 36.9375 51.125 C28.66986048 54.06246882 22.32952432 52.65100095 14.30859375 49.69140625 C10.929815 48.67948774 7.57622651 48.48985207 4.06640625 48.30859375 C2 48 2 48 0 46 C-0.125 42.875 -0.125 42.875 0 40 C6.16618181 39.59785771 11.17745757 41.03181664 17 43 C17.33 42.67 17.66 42.34 18 42 C16.7315625 41.814375 16.7315625 41.814375 15.4375 41.625 C12 41 12 41 8.8125 40.0625 C3.92722695 38.70103046 -1.0040549 37.84922033 -6 37 C-5.67 35.35 -5.34 33.7 -5 32 C0.94 31.67 6.88 31.34 13 31 C13.33 30.34 13.66 29.68 14 29 C9.38 29 4.76 29 0 29 C0 27.02 0 25.04 0 23 C2.31 23 4.62 23 7 23 C7 22.34 7 21.68 7 21 C6.00097656 21.01160156 5.00195312 21.02320313 3.97265625 21.03515625 C2.68230469 21.04417969 1.39195312 21.05320313 0.0625 21.0625 C-1.22527344 21.07410156 -2.51304688 21.08570313 -3.83984375 21.09765625 C-7 21 -7 21 -8 20 C-8 18.35 -8 16.7 -8 15 C-1.73 14.67 4.54 14.34 11 14 C7.37 13.67 3.74 13.34 0 13 C0 8.71 0 4.42 0 0 Z " fill="#F37525" transform="translate(129,223)"/>
<path d="M0 0 C1.96304505 1.96304505 1.16387489 5.74733755 1.16796875 8.4296875 C1.17129715 9.17582306 1.17462555 9.92195862 1.17805481 10.69070435 C1.18312755 12.27280052 1.18546303 13.85490742 1.18530273 15.43701172 C1.18748461 17.85792737 1.2056234 20.2783841 1.22460938 22.69921875 C1.22754414 24.23437344 1.22952838 25.7695303 1.23046875 27.3046875 C1.23765427 28.02977509 1.24483978 28.75486267 1.25224304 29.50192261 C1.23533409 33.22405059 1.12038582 34.81942127 -1 38 C-3.75729057 38.92782246 -6.43850379 39.72163164 -9.25 40.4375 C-14.98025948 41.89709439 -19.17910706 43.55963549 -24 47 C-24.66 47 -25.32 47 -26 47 C-26.85857009 38.87424737 -27.20726883 30.72857319 -27.375 22.5625 C-27.41302734 21.61552246 -27.45105469 20.66854492 -27.49023438 19.69287109 C-27.5436194 15.26897945 -27.54621168 12.03397332 -24.71875 8.48046875 C-17.90133636 2.26055832 -9.22420044 -0.55345203 0 0 Z " fill="#F67422" transform="translate(184,223)"/>
<path d="M0 0 C3.2175 -0.061875 6.435 -0.12375 9.75 -0.1875 C10.75772461 -0.21481201 11.76544922 -0.24212402 12.80371094 -0.27026367 C14.00688965 -0.28150269 14.00688965 -0.28150269 15.234375 -0.29296875 C16.05131836 -0.3086792 16.86826172 -0.32438965 17.70996094 -0.34057617 C20.57289792 0.08520177 21.91308884 1.02208489 24 3 C24.90907216 6.21671686 25.12316089 8.41156463 24.4375 11.6875 C23.67070989 14.26407655 23.67070989 14.26407655 26 17 C26.25760279 19.69452521 26.08900053 22.28548375 26 25 C25.34 25 24.68 25 24 25 C24 25.66 24 26.32 24 27 C20.93843346 28.77669223 18.75963785 29.24050818 15.234375 29.1953125 C14.43225586 29.19031738 13.63013672 29.18532227 12.80371094 29.18017578 C11.79598633 29.16196777 10.78826172 29.14375977 9.75 29.125 C6.5325 29.08375 3.315 29.0425 0 29 C0 19.43 0 9.86 0 0 Z M8 6 C8 7.65 8 9.3 8 11 C10.64 11 13.28 11 16 11 C16.59070014 9.05396726 16.59070014 9.05396726 17 7 C16.01732141 5.79438816 16.01732141 5.79438816 14.15234375 5.90234375 C12.1015625 5.93489583 10.05078125 5.96744792 8 6 Z M8 17 C8 18.65 8 20.3 8 22 C11.3 22 14.6 22 18 22 C18.33 21.01 18.66 20.02 19 19 C17.21342243 16.78629949 17.21342243 16.78629949 14.8359375 16.8046875 C14.02382812 16.82789063 13.21171875 16.85109375 12.375 16.875 C11.14910156 16.90207031 11.14910156 16.90207031 9.8984375 16.9296875 C8.95871094 16.96449219 8.95871094 16.96449219 8 17 Z " fill="#3B4144" transform="translate(198,233)"/>
<path d="M0 0 C2.64 0 5.28 0 8 0 C8.33 4.29 8.66 8.58 9 13 C9.804375 12.175 10.60875 11.35 11.4375 10.5 C14.92918765 7.52746015 17.79502351 7.56736934 22.2421875 7.82421875 C22.82226562 7.88222656 23.40234375 7.94023437 24 8 C22.17495091 11.92300272 19.81729174 14.73787272 17 18 C19.64 21.63 22.28 25.26 25 29 C24.67 29.66 24.34 30.32 24 31 C18.67988107 31.34886026 18.67988107 31.34886026 16 31 C14 29.125 14 29.125 13 27 C13 26.34 13 25.68 13 25 C12.34 25 11.68 25 11 25 C11 24.34 11 23.68 11 23 C10.34 23.33 9.68 23.66 9 24 C8.59270772 26.32156597 8.25561323 28.6568787 8 31 C5.66705225 31.04241723 3.33297433 31.04092937 1 31 C0 30 0 30 -0.11352539 27.13256836 C-0.10828857 25.88096924 -0.10305176 24.62937012 -0.09765625 23.33984375 C-0.0962413 22.67537735 -0.09482635 22.01091095 -0.09336853 21.3263092 C-0.08775518 19.19666101 -0.07520054 17.06711661 -0.0625 14.9375 C-0.05748671 13.49674631 -0.05292351 12.05599097 -0.04882812 10.61523438 C-0.03778145 7.07678898 -0.02050792 3.53840461 0 0 Z " fill="#3C4447" transform="translate(278,231)"/>
<path d="M0 0 C0.33 0 0.66 0 1 0 C1 12.66666667 1 25.33333333 1 38 C1.33 38 1.66 38 2 38 C2 32.72 2 27.44 2 22 C2.33 22 2.66 22 3 22 C3 26.29 3 30.58 3 35 C6.95969761 33.54116404 10.88766882 32.07576623 14.75 30.375 C19.79732471 28.23959339 23.47936606 27.89383396 29 28 C30.2077558 31.62326739 29.54311128 32.64146369 28 36 C27.34515625 36.02578125 26.6903125 36.0515625 26.015625 36.078125 C20.60368993 36.41445995 16.02577693 37.21112152 10.9375 39.125 C2.66986048 42.06246882 -3.67047568 40.65100095 -11.69140625 37.69140625 C-15.070185 36.67948774 -18.42377349 36.48985207 -21.93359375 36.30859375 C-24 36 -24 36 -26 34 C-26.125 30.875 -26.125 30.875 -26 28 C-19.83381819 27.59785771 -14.82254243 29.03181664 -9 31 C-8.67 30.67 -8.34 30.34 -8 30 C-8.99 29.67 -9.98 29.34 -11 29 C-9.68 29 -8.36 29 -7 29 C-7 29.66 -7 30.32 -7 31 C-5.02 31.33 -3.04 31.66 -1 32 C-0.67 21.44 -0.34 10.88 0 0 Z " fill="#F5A774" transform="translate(155,235)"/>
<path d="M0 0 C2.5 1.4375 2.5 1.4375 4 3 C4 3.66 4 4.32 4 5 C4.66 5 5.32 5 6 5 C6.83584452 9.53168716 7.36639395 12.95866984 5.8125 17.375 C3.98665296 20.0193302 2.71665485 21.33664466 0 23 C-5.06435498 23.8377696 -9.57372039 23.81501692 -14.0625 21.25 C-16.99712748 17.8420455 -17.89954956 16.10495489 -18.3125 11.5625 C-17.89705127 6.82638443 -16.5568888 4.3622777 -13 1.25 C-8.67338615 -1.45413366 -4.80712618 -1.1123129 0 0 Z M-8.8125 7.125 C-10.37509409 9.59225382 -10.36796448 11.12987704 -10 14 C-8.17296773 16.2491908 -8.17296773 16.2491908 -5.5 16.25 C-2.82703227 16.2491908 -2.82703227 16.2491908 -1 14 C-1.32326553 10.40320934 -1.32326553 10.40320934 -2 7 C-5.52568496 5.85840499 -5.52568496 5.85840499 -8.8125 7.125 Z " fill="#565C5F" transform="translate(269,239)"/>
<path d="M0 0 C2.8124031 2.23337894 3.88523801 4.29940429 4.49609375 7.8359375 C4.6223398 12.06889331 4.49850209 14.83092222 1.75 18.1875 C-1.6715178 21.44608838 -3.15488028 21.84091157 -7.75 21.875 C-9.04550781 21.89626953 -9.04550781 21.89626953 -10.3671875 21.91796875 C-12.9991288 21.67609252 -14.61480544 21.01733541 -16.875 19.6875 C-16.875 19.0275 -16.875 18.3675 -16.875 17.6875 C-17.535 17.6875 -18.195 17.6875 -18.875 17.6875 C-21.11274069 13.34365043 -20.97152257 10.41098183 -19.875 5.6875 C-18.41581687 2.30833907 -17.21528928 0.92491112 -14.1875 -1.1875 C-8.9712197 -2.95906689 -4.95963376 -2.26418063 0 0 Z M-11.625 6.375 C-13.12949168 8.64700018 -13.12949168 8.64700018 -12.625 11.375 C-12.08879042 13.62519969 -12.08879042 13.62519969 -10.875 14.6875 C-8.53555264 14.40019945 -6.2010857 14.06813221 -3.875 13.6875 C-3.62484127 10.27107241 -3.62484127 10.27107241 -3.875 6.6875 C-7.88364543 4.00114672 -7.88364543 4.00114672 -11.625 6.375 Z " fill="#4B5254" transform="translate(245.875,240.3125)"/>
<path d="M0 0 C4.12841647 4.79828299 4.5330671 8.35438049 4.25 14.375 C4.23195313 15.11105469 4.21390625 15.84710938 4.1953125 16.60546875 C4.14859176 18.40421736 4.07686183 20.20228711 4 22 C1.06195004 22.08086376 -1.87388075 22.1404283 -4.8125 22.1875 C-5.64587891 22.21263672 -6.47925781 22.23777344 -7.33789062 22.26367188 C-8.54155273 22.27817383 -8.54155273 22.27817383 -9.76953125 22.29296875 C-10.87711792 22.31653442 -10.87711792 22.31653442 -12.00708008 22.34057617 C-14.55728456 21.90476394 -15.41977704 21.00583212 -17 19 C-17.61044608 16.27224092 -17.49184748 13.74519524 -17 11 C-15.5625 9 -15.5625 9 -13 8 C-9.98154755 7.77660335 -7.01985562 7.82577756 -4 8 C-4 7.34 -4 6.68 -4 6 C-7.83225427 5.91087781 -11.26562152 6.12132271 -15 7 C-15.66 5.02 -16.32 3.04 -17 1 C-11.33359364 -1.43970274 -5.65561149 -3.49993944 0 0 Z M-9 13 C-9.33 13.99 -9.66 14.98 -10 16 C-8.35 16 -6.7 16 -5 16 C-4.67 15.01 -4.34 14.02 -4 13 C-5.65 13 -7.3 13 -9 13 Z " fill="#575C60" transform="translate(345,240)"/>
<path d="M0 0 C7.26 0 14.52 0 22 0 C22 1.98 22 3.96 22 6 C17.05 6 12.1 6 7 6 C7 7.98 7 9.96 7 12 C7.85464844 11.91621094 8.70929688 11.83242187 9.58984375 11.74609375 C10.69457031 11.64425781 11.79929687 11.54242188 12.9375 11.4375 C14.59072266 11.28087891 14.59072266 11.28087891 16.27734375 11.12109375 C17.62505859 11.06115234 17.62505859 11.06115234 19 11 C20 12 20 12 20.125 15 C20 18 20 18 19 19 C16.98035801 19.07244053 14.95832876 19.08377188 12.9375 19.0625 C11.28041016 19.04896484 11.28041016 19.04896484 9.58984375 19.03515625 C8.73519531 19.02355469 7.88054687 19.01195312 7 19 C7 22.3 7 25.6 7 29 C4.69 29 2.38 29 0 29 C0 19.43 0 9.86 0 0 Z " fill="#485155" transform="translate(305,233)"/>
<path d="M0 0 C0.680625 0.09023437 1.36125 0.18046875 2.0625 0.2734375 C4 0.625 4 0.625 7 1.625 C6.67 3.605 6.34 5.585 6 7.625 C3.03 7.295 0.06 6.965 -3 6.625 C-3 7.285 -3 7.945 -3 8.625 C-2.37351562 8.73457031 -1.74703125 8.84414062 -1.1015625 8.95703125 C-0.28429687 9.11558594 0.53296875 9.27414063 1.375 9.4375 C2.18710937 9.58832031 2.99921875 9.73914063 3.8359375 9.89453125 C6 10.625 6 10.625 8 13.625 C8.4375 16.5625 8.4375 16.5625 8 19.625 C6.1875 22 6.1875 22 3 23.625 C-2.39660967 24.26365203 -7.22026135 24.43661097 -12 21.625 C-11.67 19.645 -11.34 17.665 -11 15.625 C-7.37 16.285 -3.74 16.945 0 17.625 C0 16.965 0 16.305 0 15.625 C-0.62648438 15.50382813 -1.25296875 15.38265625 -1.8984375 15.2578125 C-3.12433594 15.00644531 -3.12433594 15.00644531 -4.375 14.75 C-5.18710937 14.58757812 -5.99921875 14.42515625 -6.8359375 14.2578125 C-9 13.625 -9 13.625 -11 11.625 C-11.27908135 8.69464581 -11.48367046 6.46874924 -11 3.625 C-7.84614708 0.25363999 -4.48906023 -0.62914859 0 0 Z " fill="#555B5C" transform="translate(363,238.375)"/>
<path d="M0 0 C0 1.65 0 3.3 0 5 C1.98 5 3.96 5 6 5 C6.04254356 6.99954746 6.04080783 9.00041636 6 11 C5 12 5 12 2.4375 12.0625 C1.633125 12.041875 0.82875 12.02125 0 12 C0.33 14.64 0.66 17.28 1 20 C2.65 20.33 4.3 20.66 6 21 C6.38133299 22.9914056 6.71325582 24.99279077 7 27 C5.42077594 28.57922406 3.80556126 28.207659 1.625 28.25 C0.83351563 28.27578125 0.04203125 28.3015625 -0.7734375 28.328125 C-3 28 -3 28 -4.77734375 26.90234375 C-6.61106446 24.04923836 -6.28692732 21.65988633 -6.1875 18.3125 C-6.16042969 17.13300781 -6.13335937 15.95351562 -6.10546875 14.73828125 C-6.07066406 13.83464844 -6.03585937 12.93101562 -6 12 C-7.32 12 -8.64 12 -10 12 C-10 10.02 -10 8.04 -10 6 C-9.01 5.67 -8.02 5.34 -7 5 C-7 3.68 -7 2.36 -7 1 C-4.53721199 -0.231394 -2.7204945 -0.07159196 0 0 Z " fill="#41474A" transform="translate(381,234)"/>
<path d="M0 0 C6.27 0 12.54 0 19 0 C19 0.66 19 1.32 19 2 C15.33012779 3.22329074 12.66032178 2.88021006 8.8125 2.5625 C7.54019531 2.46066406 6.26789063 2.35882813 4.95703125 2.25390625 C3.49330078 2.12822266 3.49330078 2.12822266 2 2 C2 2.66 2 3.32 2 4 C2.84304687 3.98839844 3.68609375 3.97679687 4.5546875 3.96484375 C5.65039062 3.95582031 6.74609375 3.94679687 7.875 3.9375 C8.96554688 3.92589844 10.05609375 3.91429687 11.1796875 3.90234375 C14 4 14 4 16 5 C16 6.98 16 8.96 16 11 C15.01 11.495 15.01 11.495 14 12 C14 11.34 14 10.68 14 10 C12.68 10 11.36 10 10 10 C10 10.99 10 11.98 10 13 C14.29 13 18.58 13 23 13 C23.66 14.32 24.32 15.64 25 17 C22.41073669 19.58926331 20.97294721 19.37398043 17.375 19.625 C16.37210938 19.69976562 15.36921875 19.77453125 14.3359375 19.8515625 C13.17964844 19.92503906 13.17964844 19.92503906 12 20 C13.65 20.33 15.3 20.66 17 21 C17 21.66 17 22.32 17 23 C18.65 23 20.3 23 22 23 C22 23.99 22 24.98 22 26 C15.4 24.68 8.8 23.36 2 22 C2.33 20.35 2.66 18.7 3 17 C8.94 16.67 14.88 16.34 21 16 C21.33 15.34 21.66 14.68 22 14 C17.38 14 12.76 14 8 14 C8 12.02 8 10.04 8 8 C10.31 8 12.62 8 15 8 C15 7.34 15 6.68 15 6 C14.00097656 6.01160156 13.00195312 6.02320313 11.97265625 6.03515625 C10.68230469 6.04417969 9.39195312 6.05320313 8.0625 6.0625 C6.77472656 6.07410156 5.48695312 6.08570313 4.16015625 6.09765625 C1 6 1 6 0 5 C0 3.35 0 1.7 0 0 Z " fill="#E99052" transform="translate(121,238)"/>
<path d="M0 0 C0.33 0 0.66 0 1 0 C1 1.65 1 3.3 1 5 C5.455 4.505 5.455 4.505 10 4 C10 4.66 10 5.32 10 6 C8.35 6 6.7 6 5 6 C4.67 7.32 4.34 8.64 4 10 C5.32 10.33 6.64 10.66 8 11 C5.69 11 3.38 11 1 11 C1 12.65 1 14.3 1 16 C4.3 16 7.6 16 11 16 C11.33 15.34 11.66 14.68 12 14 C12.33 14.99 12.66 15.98 13 17 C14.98 17 16.96 17 19 17 C19 17.66 19 18.32 19 19 C18.34 19 17.68 19 17 19 C17 19.66 17 20.32 17 21 C13.93843346 22.77669223 11.75963785 23.24050818 8.234375 23.1953125 C7.34492188 23.18886719 6.45546875 23.18242187 5.5390625 23.17578125 C4.61867187 23.15902344 3.69828125 23.14226562 2.75 23.125 C1.81414062 23.11597656 0.87828125 23.10695313 -0.0859375 23.09765625 C-2.39088657 23.07413636 -4.6953116 23.04126853 -7 23 C-7.36761488 18.44310722 -7.36761488 18.44310722 -5.6875 16.41796875 C-3.34375 14.70898438 -3.34375 14.70898438 -1 13 C-2.32 13.33 -3.64 13.66 -5 14 C-4.67 13.01 -4.34 12.02 -4 11 C-3.34 11 -2.68 11 -2 11 C0.32590854 7.36576791 0.16265833 4.22911669 0 0 Z " fill="#353C41" transform="translate(205,239)"/>
<path d="M0 0 C6.68993219 0.53951066 12.63460728 1.88706171 19 4 C19 4.66 19 5.32 19 6 C19.639375 6.12375 20.27875 6.2475 20.9375 6.375 C21.9584375 6.684375 21.9584375 6.684375 23 7 C23.33 7.66 23.66 8.32 24 9 C20.37 8.34 16.74 7.68 13 7 C13 9.64 13 12.28 13 15 C12.34 14.67 11.68 14.34 11 14 C9.12943209 13.7724985 7.25314042 13.59037189 5.375 13.4375 C3.60125 13.293125 1.8275 13.14875 0 13 C0 8.71 0 4.42 0 0 Z " fill="#E9995B" transform="translate(129,223)"/>
<path d="M0 0 C2.64 0 5.28 0 8 0 C8.33 4.29 8.66 8.58 9 13 C9.804375 12.175 10.60875 11.35 11.4375 10.5 C14.92918765 7.52746015 17.79502351 7.56736934 22.2421875 7.82421875 C22.82226562 7.88222656 23.40234375 7.94023437 24 8 C23.67 8.99 23.34 9.98 23 11 C22.67 10.34 22.34 9.68 22 9 C20.35 9 18.7 9 17 9 C16.34 11.97 15.68 14.94 15 18 C14.67 17.34 14.34 16.68 14 16 C12.93458984 16.12568359 12.93458984 16.12568359 11.84765625 16.25390625 C10.46900391 16.40666016 10.46900391 16.40666016 9.0625 16.5625 C8.14597656 16.66691406 7.22945313 16.77132812 6.28515625 16.87890625 C5.15400391 16.93884766 5.15400391 16.93884766 4 17 C3.67 16.67 3.34 16.34 3 16 C1.64908472 18.70183055 1.66141942 21.11808206 1.4375 24.125 C1.35371094 25.22070312 1.26992188 26.31640625 1.18359375 27.4453125 C1.12300781 28.28835938 1.06242187 29.13140625 1 30 C0.67 30 0.34 30 0 30 C0 20.1 0 10.2 0 0 Z " fill="#545A5D" transform="translate(278,231)"/>
<path d="M0 0 C2.5 1.4375 2.5 1.4375 4 3 C4 3.66 4 4.32 4 5 C4.66 5 5.32 5 6 5 C6.83584452 9.53168716 7.36639395 12.95866984 5.8125 17.375 C3.98053219 20.02819476 2.74231453 21.35461128 0 23 C-2.796875 23.29296875 -2.796875 23.29296875 -5.75 23.1875 C-7.22726562 23.14689453 -7.22726562 23.14689453 -8.734375 23.10546875 C-9.48203125 23.07066406 -10.2296875 23.03585937 -11 23 C-11 22.67 -11 22.34 -11 22 C-7.7 22 -4.4 22 -1 22 C-1.66 20.68 -2.32 19.36 -3 18 C-2.236875 17.29875 -1.47375 16.5975 -0.6875 15.875 C1.96590478 13.03647396 3.44000743 10.53050949 5 7 C3.35 7.33 1.7 7.66 0 8 C0 10.31 0 12.62 0 15 C-0.99 15 -1.98 15 -3 15 C-2.67 14.67 -2.34 14.34 -2 14 C-1.95907063 11.66702567 -1.95758277 9.33294775 -2 7 C-3.65 6.67 -5.3 6.34 -7 6 C-7 5.34 -7 4.68 -7 4 C-9.64 4 -12.28 4 -15 4 C-10.28399748 -1.04124408 -6.67456967 -1.54441753 0 0 Z " fill="#62676B" transform="translate(269,239)"/>
<path d="M0 0 C0.99 0.33 1.98 0.66 3 1 C3.65798422 4.1437024 4.10063717 6.51917799 3.4375 9.6875 C2.67070989 12.26407655 2.67070989 12.26407655 5 15 C5.125 18.1875 5.125 18.1875 5 21 C1.71303767 21.79953138 0.28976808 22.09658936 -3 21 C-3.33 19.35 -3.66 17.7 -4 16 C-5.98 15.34 -7.96 14.68 -10 14 C-9.67 12.68 -9.34 11.36 -9 10 C-7.35 10 -5.7 10 -4 10 C-4.33 8.02 -4.66 6.04 -5 4 C-3.68 4 -2.36 4 -1 4 C-0.67 2.68 -0.34 1.36 0 0 Z " fill="#4D5255" transform="translate(219,235)"/>
<path d="M0 0 C1.2077558 3.62326739 0.54311128 4.64146369 -1 8 C-2.06927734 8.07347656 -2.06927734 8.07347656 -3.16015625 8.1484375 C-8.71707277 8.58222102 -13.6387836 9.42317165 -19 11 C-22.4375 11.125 -22.4375 11.125 -25 11 C-23.5279633 6.87829724 -20.79226594 4.89223947 -17 3 C-11.2770861 0.78437436 -6.12924922 -0.39973364 0 0 Z " fill="#EB8642" transform="translate(184,263)"/>
<path d="M0 0 C0.66 1.32 1.32 2.64 2 4 C1.34 4.66 0.68 5.32 0 6 C-1.32 6 -2.64 6 -4 6 C-5.66489182 9.92438786 -6.87204037 13.89100419 -8 18 C-9.32 18.33 -10.64 18.66 -12 19 C-12.96448232 13.2522067 -13.51332604 8.46375227 -11 3 C-7.30934601 0.45754947 -4.45652738 -0.393223 0 0 Z " fill="#3A3F44" transform="translate(240,238)"/>
<path d="M0 0 C1.96304505 1.96304505 1.16387489 5.74733755 1.16796875 8.4296875 C1.17129715 9.17582306 1.17462555 9.92195862 1.17805481 10.69070435 C1.18312755 12.27280052 1.18546303 13.85490742 1.18530273 15.43701172 C1.18748461 17.85792737 1.2056234 20.2783841 1.22460938 22.69921875 C1.22754414 24.23437344 1.22952838 25.7695303 1.23046875 27.3046875 C1.23765427 28.02977509 1.24483978 28.75486267 1.25224304 29.50192261 C1.23533409 33.22405059 1.12038582 34.81942127 -1 38 C-3.6015625 38.73046875 -3.6015625 38.73046875 -6.625 39.1875 C-7.62789062 39.34605469 -8.63078125 39.50460937 -9.6640625 39.66796875 C-10.43492187 39.77753906 -11.20578125 39.88710938 -12 40 C-8.19788032 36.50204989 -6.82508189 36.83215456 -1 36 C-1 24.78 -1 13.56 -1 2 C-3.31 2 -5.62 2 -8 2 C-8 2.66 -8 3.32 -8 4 C-8.94875 4.309375 -9.8975 4.61875 -10.875 4.9375 C-13.86080408 5.87394742 -13.86080408 5.87394742 -16 7 C-18.125 6.0625 -18.125 6.0625 -20 5 C-18.3962669 4.35309078 -16.79199694 3.70751236 -15.1875 3.0625 C-13.84751953 2.52302734 -13.84751953 2.52302734 -12.48046875 1.97265625 C-8.08263532 0.24815149 -4.73598374 -0.17540681 0 0 Z " fill="#EDA87C" transform="translate(184,223)"/>
<path d="M0 0 C1.485 0.99 1.485 0.99 3 2 C5.33199388 2.07905064 7.66832622 2.08798769 10 2 C10.33 3.65 10.66 5.3 11 7 C9.68 7.33 8.36 7.66 7 8 C6.67 10.97 6.34 13.94 6 17 C3.69 17 1.38 17 -1 17 C-1.02709444 14.91673869 -1.04643873 12.83337559 -1.0625 10.75 C-1.07410156 9.58984375 -1.08570313 8.4296875 -1.09765625 7.234375 C-1.01782092 4.59022872 -0.78643778 2.50173909 0 0 Z " fill="#333B41" transform="translate(280,245)"/>
<path d="M0 0 C1.02165961 3.06497883 0.9831418 4.3841348 0.5625 7.5 C0.22541099 10.06016973 0 12.40899698 0 15 C3.16115776 13.63016497 3.9927092 13.0109362 6 10 C6.33 10.66 6.66 11.32 7 12 C9.31 12 11.62 12 14 12 C14 12.99 14 13.98 14 15 C15.98 15 17.96 15 20 15 C17.71616558 18.04511256 16.41662639 19.76427703 12.58203125 20.40234375 C8.13160294 20.46150749 4.91325553 20.25034787 1 18 C1 17.34 1 16.68 1 16 C0.34 16 -0.32 16 -1 16 C-3.23629743 11.65895204 -3.03087613 8.72484891 -2 4 C-0.9375 1.5625 -0.9375 1.5625 0 0 Z " fill="#656C70" transform="translate(228,242)"/>
<path d="M0 0 C5.85685923 -0.38196908 11.71111731 0.28463494 17 3 C17.7890625 5.109375 17.7890625 5.109375 18 7 C18.99 7 19.98 7 21 7 C21 7.66 21 8.32 21 9 C17.8742604 8.89037184 14.74975219 8.75968759 11.625 8.625 C10.73554688 8.5940625 9.84609375 8.563125 8.9296875 8.53125 C8.07890625 8.49257813 7.228125 8.45390625 6.3515625 8.4140625 C5.56604004 8.3826416 4.78051758 8.3512207 3.97119141 8.31884766 C2 8 2 8 0 6 C-0.125 2.875 -0.125 2.875 0 0 Z " fill="#E87F39" transform="translate(129,263)"/>
<path d="M0 0 C0.680625 0.09023437 1.36125 0.18046875 2.0625 0.2734375 C4 0.625 4 0.625 7 1.625 C6.67 3.605 6.34 5.585 6 7.625 C3.03 7.295 0.06 6.965 -3 6.625 C-3 7.285 -3 7.945 -3 8.625 C-2.34 8.955 -1.68 9.285 -1 9.625 C-2.32 9.295 -3.64 8.965 -5 8.625 C-5 7.965 -5 7.305 -5 6.625 C-6.65 6.295 -8.3 5.965 -10 5.625 C-10 7.605 -10 9.585 -10 11.625 C-10.33 11.625 -10.66 11.625 -11 11.625 C-11.34730339 6.32862331 -11.34730339 6.32862331 -11 3.625 C-7.84614708 0.25363999 -4.48906023 -0.62914859 0 0 Z " fill="#4A4F53" transform="translate(363,238.375)"/>
<path d="M0 0 C0 1.65 0 3.3 0 5 C1.98 5 3.96 5 6 5 C6 6.98 6 8.96 6 11 C5.34 9.68 4.68 8.36 4 7 C2.68 7 1.36 7 0 7 C-0.33 7.99 -0.66 8.98 -1 10 C-2.29355827 11.37195574 -3.62298702 12.71182656 -5 14 C-5.33 13.34 -5.66 12.68 -6 12 C-7.32 12 -8.64 12 -10 12 C-10 10.02 -10 8.04 -10 6 C-9.01 5.67 -8.02 5.34 -7 5 C-7 3.68 -7 2.36 -7 1 C-4.53721199 -0.231394 -2.7204945 -0.07159196 0 0 Z " fill="#4E585D" transform="translate(381,234)"/>
<path d="M0 0 C0.66 0.33 1.32 0.66 2 1 C0.625 3.5 0.625 3.5 -1 6 C-1.66 6 -2.32 6 -3 6 C-2.67 16.56 -2.34 27.12 -2 38 C-1.67 37.34 -1.34 36.68 -1 36 C0.32 36 1.64 36 3 36 C3 35.34 3 34.68 3 34 C5.31 34 7.62 34 10 34 C7.51520614 35.65652924 5.0363745 37.16072474 2.4375 38.625 C1.65246094 39.07101562 0.86742187 39.51703125 0.05859375 39.9765625 C-2 41 -2 41 -4 41 C-4.85857009 32.87424737 -5.20726883 24.72857319 -5.375 16.5625 C-5.41302734 15.61552246 -5.45105469 14.66854492 -5.49023438 13.69287109 C-5.54595054 9.0758033 -5.50149511 5.98491956 -2.4765625 2.33984375 C-1.65929687 1.56769531 -0.84203125 0.79554688 0 0 Z " fill="#E47935" transform="translate(162,229)"/>
<path d="M0 0 C1.65322266 0.01740234 1.65322266 0.01740234 3.33984375 0.03515625 C4.99693359 0.04869141 4.99693359 0.04869141 6.6875 0.0625 C7.54214844 0.07410156 8.39679688 0.08570313 9.27734375 0.09765625 C9.90234375 2.47265625 9.90234375 2.47265625 10.27734375 5.09765625 C8.27734375 7.09765625 8.27734375 7.09765625 5.96484375 7.328125 C5.07796875 7.31394531 4.19109375 7.29976562 3.27734375 7.28515625 C1.94703125 7.27548828 1.94703125 7.27548828 0.58984375 7.265625 C-1.72265625 7.09765625 -1.72265625 7.09765625 -3.72265625 6.09765625 C-3.76537725 4.4315372 -3.76329457 2.7638274 -3.72265625 1.09765625 C-2.72265625 0.09765625 -2.72265625 0.09765625 0 0 Z " fill="#ECA36F" transform="translate(115.72265625,228.90234375)"/>
<path d="M0 0 C0.66 0.33 1.32 0.66 2 1 C2 1.99 2 2.98 2 4 C2.99 3.67 3.98 3.34 5 3 C5 4.65 5 6.3 5 8 C5.99 8.33 6.98 8.66 8 9 C4.25 12.875 4.25 12.875 2 14 C2.99 14 3.98 14 5 14 C4.67 14.99 4.34 15.98 4 17 C3.34 17 2.68 17 2 17 C1.34 18.32 0.68 19.64 0 21 C-1.13945516 18.72108967 -1.12894214 17.43217896 -1.1328125 14.90234375 C-1.13410156 14.10119141 -1.13539063 13.30003906 -1.13671875 12.47460938 C-1.13285156 11.63736328 -1.12898437 10.80011719 -1.125 9.9375 C-1.12886719 9.09638672 -1.13273438 8.25527344 -1.13671875 7.38867188 C-1.12662682 1.12662682 -1.12662682 1.12662682 0 0 Z " fill="#32383C" transform="translate(199,238)"/>
<path d="M0 0 C1.093125 0.00257813 2.18625 0.00515625 3.3125 0.0078125 C4.405625 0.00523437 5.49875 0.00265625 6.625 0 C9.3125 0.1328125 9.3125 0.1328125 10.3125 1.1328125 C10.3125 2.7828125 10.3125 4.4328125 10.3125 6.1328125 C5.6925 6.1328125 1.0725 6.1328125 -3.6875 6.1328125 C-3.6875 0.1822311 -3.6875 0.1822311 0 0 Z " fill="#EC9759" transform="translate(116.6875,245.8671875)"/>
<path d="M0 0 C2.4375 0.375 2.4375 0.375 5 1 C5.33 1.66 5.66 2.32 6 3 C8.11327425 3.90725434 8.11327425 3.90725434 10.5625 4.625 C11.38878906 4.88539063 12.21507812 5.14578125 13.06640625 5.4140625 C14.02353516 5.70410156 14.02353516 5.70410156 15 6 C15 6.66 15 7.32 15 8 C12.22862355 9.88453599 10.92132313 9.99438022 7.5 9.75 C4.59784899 9.1281105 2.5160502 8.50963012 0 7 C0 4.69 0 2.38 0 0 Z " fill="#464B4E" transform="translate(353,244)"/>
<path d="M0 0 C6.6 0 13.2 0 20 0 C20 1.32 20 2.64 20 4 C17.41659616 4.02703562 14.83347692 4.04685611 12.25 4.0625 C11.52039063 4.07087891 10.79078125 4.07925781 10.0390625 4.08789062 C6.51329442 4.10391684 3.38965084 3.95292713 0 3 C0 2.01 0 1.02 0 0 Z " fill="#333C3E" transform="translate(306,234)"/>
<path d="M0 0 C0.33 0 0.66 0 1 0 C1.83584452 4.53168716 2.36639395 7.95866984 0.8125 12.375 C-1.01946781 15.02819476 -2.25768547 16.35461128 -5 18 C-7.796875 18.29296875 -7.796875 18.29296875 -10.75 18.1875 C-12.22726562 18.14689453 -12.22726562 18.14689453 -13.734375 18.10546875 C-14.48203125 18.07066406 -15.2296875 18.03585937 -16 18 C-16 17.67 -16 17.34 -16 17 C-12.7 17 -9.4 17 -6 17 C-6.66 15.68 -7.32 14.36 -8 13 C-7.21625 12.236875 -6.4325 11.47375 -5.625 10.6875 C-2.20515711 7.18623228 -0.7734196 4.76942085 0 0 Z " fill="#666D71" transform="translate(274,244)"/>
<path d="M0 0 C2.96404505 2.80804268 5.44499019 5.18315774 7 9 C6 10 6 10 2.125 10.3125 C-1.70325694 10.27819662 -1.70325694 10.27819662 -4 8.125 C-5 6 -5 6 -5 4 C-5.66 4 -6.32 4 -7 4 C-7 3.34 -7 2.68 -7 2 C-7.66 1.67 -8.32 1.34 -9 1 C-7.0625 1.3125 -7.0625 1.3125 -5 2 C-4.67 2.99 -4.34 3.98 -4 5 C-1.83656989 2.96731398 -1.83656989 2.96731398 0 0 Z " fill="#73797B" transform="translate(296,252)"/>
<path d="M0 0 C1.98 0 3.96 0 6 0 C5.38546129 5.37721374 2.72926853 8.27073147 -1 12 C-0.67 12.99 -0.34 13.98 0 15 C-2.97 15 -5.94 15 -9 15 C-6.45170261 9.90340522 -5.10645833 9.89128086 0 8 C0 5.36 0 2.72 0 0 Z " fill="#31393D" transform="translate(268,246)"/>
<path d="M0 0 C5.27315333 0.4452885 10.01770224 1.08373163 15 3 C15 3.66 15 4.32 15 5 C16.65 5 18.3 5 20 5 C20 5.99 20 6.98 20 8 C13.4 6.68 6.8 5.36 0 4 C0 2.68 0 1.36 0 0 Z " fill="#F09863" transform="translate(123,256)"/>
<path d="M0 0 C0.33 0 0.66 0 1 0 C1.33 4.29 1.66 8.58 2 13 C2.804375 12.175 3.60875 11.35 4.4375 10.5 C7.92918765 7.52746015 10.79502351 7.56736934 15.2421875 7.82421875 C15.82226562 7.88222656 16.40234375 7.94023437 17 8 C16.67 8.99 16.34 9.98 16 11 C15.67 10.34 15.34 9.68 15 9 C13.35 9 11.7 9 10 9 C9.34 11.97 8.68 14.94 8 18 C7.67 17.34 7.34 16.68 7 16 C4.69 16 2.38 16 0 16 C0 10.72 0 5.44 0 0 Z " fill="#82878A" transform="translate(285,231)"/>
<path d="M0 0 C1.485 0.99 1.485 0.99 3 2 C3.66 2.33 4.32 2.66 5 3 C4.814375 3.53625 4.62875 4.0725 4.4375 4.625 C3.88580676 7.61990614 4.39402556 10.03745829 5 13 C4.01 13.33 3.02 13.66 2 14 C1.67 14.66 1.34 15.32 1 16 C0.34 16 -0.32 16 -1 16 C-1.02712153 14.083412 -1.04645097 12.1667127 -1.0625 10.25 C-1.07410156 9.18265625 -1.08570313 8.1153125 -1.09765625 7.015625 C-1.01510087 4.46631499 -0.74617558 2.42066409 0 0 Z " fill="#333B3E" transform="translate(280,245)"/>
<path d="M0 0 C2.5 1.125 2.5 1.125 5 3 C5.3125 6.1875 5.3125 6.1875 5 9 C1.71303767 9.79953138 0.28976808 10.09658936 -3 9 C-3.1875 5.625 -3.1875 5.625 -3 2 C-2.01 1.34 -1.02 0.68 0 0 Z " fill="#353C3F" transform="translate(219,247)"/>
<path d="M0 0 C0.33 0 0.66 0 1 0 C1 1.65 1 3.3 1 5 C5.455 4.505 5.455 4.505 10 4 C10 4.66 10 5.32 10 6 C8.35 6 6.7 6 5 6 C4.67 7.32 4.34 8.64 4 10 C5.32 10.33 6.64 10.66 8 11 C5.69 11 3.38 11 1 11 C1 12.65 1 14.3 1 16 C3.97 16 6.94 16 10 16 C10 16.33 10 16.66 10 17 C6.7 17 3.4 17 0 17 C-1.125 9.25 -1.125 9.25 0 7 C0.04022391 4.6670134 0.04320247 2.33293334 0 0 Z " fill="#919597" transform="translate(205,239)"/>
<path d="M0 0 C1.98 0 3.96 0 6 0 C8 6.875 8 6.875 8 8 C5.36 8 2.72 8 0 8 C0 5.36 0 2.72 0 0 Z " fill="#F57620" transform="translate(131,225)"/>
<path d="M0 0 C2.64 0 5.28 0 8 0 C8.66 1.32 9.32 2.64 10 4 C7.07472177 6.92527823 3.97111955 6.96907228 0 7 C-4.03834218 6.51125199 -8.01334801 5.80397482 -12 5 C-12 4.67 -12 4.34 -12 4 C-6.06 3.67 -0.12 3.34 6 3 C6.33 2.34 6.66 1.68 7 1 C4.69 1 2.38 1 0 1 C0 0.67 0 0.34 0 0 Z " fill="#EA8647" transform="translate(136,251)"/>
<path d="M0 0 C7.625 0.875 7.625 0.875 11 2 C10.67 3.98 10.34 5.96 10 8 C7.03 7.67 4.06 7.34 1 7 C1 7.66 1 8.32 1 9 C1.66 9.33 2.32 9.66 3 10 C1.68 9.67 0.36 9.34 -1 9 C-0.67 8.01 -0.34 7.02 0 6 C1.65 5.67 3.3 5.34 5 5 C4.33131686 1.88667752 4.33131686 1.88667752 1.9375 0.8125 C1.298125 0.544375 0.65875 0.27625 0 0 Z " fill="#797E81" transform="translate(359,238)"/>
<path d="M0 0 C0.33 0 0.66 0 1 0 C1.33 1.65 1.66 3.3 2 5 C2.99 5 3.98 5 5 5 C8.15727531 6.65756954 10.54003371 8.44706986 13 11 C11.39667209 11.08121924 9.79215974 11.13929134 8.1875 11.1875 C7.29417969 11.22230469 6.40085937 11.25710938 5.48046875 11.29296875 C3 11 3 11 1.1875 9.75 C-0.91550277 6.65083803 -0.17947602 3.64934583 0 0 Z " fill="#61686B" transform="translate(328,251)"/>
<path d="M0 0 C2.97 0.495 2.97 0.495 6 1 C6 4 6 4 5 7 C7.97 7 10.94 7 14 7 C14 7.33 14 7.66 14 8 C12.25034642 8.05429959 10.50020213 8.09292823 8.75 8.125 C7.77546875 8.14820313 6.8009375 8.17140625 5.796875 8.1953125 C2.9803502 7.99862781 1.39050964 7.44568916 -1 6 C-0.67 4.02 -0.34 2.04 0 0 Z " fill="#72777A" transform="translate(352,254)"/>
<path d="M0 0 C4.95 0 9.9 0 15 0 C15 1.98 15 3.96 15 6 C14.01 6.495 14.01 6.495 13 7 C13 6.34 13 5.68 13 5 C11.68 5 10.36 5 9 5 C9 5.99 9 6.98 9 8 C10.65 8 12.3 8 14 8 C14 8.33 14 8.66 14 9 C11.69 9 9.38 9 7 9 C7 7.02 7 5.04 7 3 C9.31 3 11.62 3 14 3 C14 2.34 14 1.68 14 1 C9.38 1 4.76 1 0 1 C0 0.67 0 0.34 0 0 Z " fill="#EFA270" transform="translate(122,243)"/>
<path d="M0 0 C0.33 0.99 0.66 1.98 1 3 C-0.670625 3.12375 -0.670625 3.12375 -2.375 3.25 C-6.05753944 3.57873787 -6.05753944 3.57873787 -7.4375 6.0625 C-7.623125 6.701875 -7.80875 7.34125 -8 8 C-9.33333333 8 -10.66666667 8 -12 8 C-12 6.02 -12 4.04 -12 2 C-7.82262526 0.40861915 -4.46839215 -0.21278058 0 0 Z " fill="#32383B" transform="translate(341,249)"/>
<path d="M0 0 C0.33 0 0.66 0 1 0 C1 4.29 1 8.58 1 13 C1.99 12.67 2.98 12.34 4 12 C3.34 13.65 2.68 15.3 2 17 C3.32 17.33 4.64 17.66 6 18 C4.58566794 18.2236337 3.16832382 18.42826476 1.75 18.625 C0.56664062 18.79902344 0.56664062 18.79902344 -0.640625 18.9765625 C-3.32152459 19.00319395 -4.72694089 18.36592084 -7 17 C-5.68 17 -4.36 17 -3 17 C-2.67 16.34 -2.34 15.68 -2 15 C-1.34 15.33 -0.68 15.66 0 16 C0 10.72 0 5.44 0 0 Z " fill="#ECBC9D" transform="translate(157,257)"/>
<path d="M0 0 C-0.74765625 0.33773438 -1.4953125 0.67546875 -2.265625 1.0234375 C-3.25046875 1.46945312 -4.2353125 1.91546875 -5.25 2.375 C-6.71179688 3.03628906 -6.71179688 3.03628906 -8.203125 3.7109375 C-10.49311839 4.76638138 -12.75366601 5.85543935 -15 7 C-12.69 7 -10.38 7 -8 7 C-11.4019487 9.09350689 -14.05272412 9.17942163 -18 9 C-16.48660052 4.76248146 -13.81008791 3.19812764 -10 1 C-6.09465055 -0.64024677 -4.0186082 -1.19868356 0 0 Z " fill="#EAA16E" transform="translate(177,265)"/>
<path d="M0 0 C6.02839298 -0.39315606 11.40447021 0.66316955 17 3 C17.33 3.66 17.66 4.32 18 5 C15.36 4.67 12.72 4.34 10 4 C10 3.34 10 2.68 10 2 C7.36 2 4.72 2 2 2 C2.57344937 4.86724686 2.8614515 5.8614515 5 8 C1.125 7.125 1.125 7.125 0 6 C-0.04080783 4.00041636 -0.04254356 1.99954746 0 0 Z " fill="#EAA471" transform="translate(129,263)"/>
<path d="M0 0 C1.98 0 3.96 0 6 0 C6 0.66 6 1.32 6 2 C5.34 2 4.68 2 4 2 C4 2.66 4 3.32 4 4 C0.93843346 5.77669223 -1.24036215 6.24050818 -4.765625 6.1953125 C-5.65507812 6.18886719 -6.54453125 6.18242187 -7.4609375 6.17578125 C-8.38132813 6.15902344 -9.30171875 6.14226562 -10.25 6.125 C-11.18585938 6.11597656 -12.12171875 6.10695313 -13.0859375 6.09765625 C-15.39088657 6.07413636 -17.6953116 6.04126853 -20 6 C-20 5.67 -20 5.34 -20 5 C-13.73 5 -7.46 5 -1 5 C-0.67 3.35 -0.34 1.7 0 0 Z " fill="#A0A4AB" transform="translate(218,256)"/>
<path d="M0 0 C2.97 0.495 2.97 0.495 6 1 C6.38133299 2.9914056 6.71325582 4.99279077 7 7 C6 8 6 8 3.93359375 8.09765625 C3.10988281 8.08605469 2.28617187 8.07445312 1.4375 8.0625 C0.61121094 8.05347656 -0.21507812 8.04445313 -1.06640625 8.03515625 C-1.70449219 8.02355469 -2.34257812 8.01195312 -3 8 C-2.01 7.67 -1.02 7.34 0 7 C1.04449911 3.86650268 0.93423645 3.01031744 0 0 Z M4 2 C3.34 2.66 2.68 3.32 2 4 C2.99 4 3.98 4 5 4 C4.67 3.34 4.34 2.68 4 2 Z " fill="#6B6F75" transform="translate(381,254)"/>
<path d="M0 0 C2 1 2 1 2 1 Z M-2.5625 0.8125 C0 1 0 1 2 3 C2.33 3.99 2.66 4.98 3 6 C-0.3 6 -3.6 6 -7 6 C-5.76470588 1.05882353 -5.76470588 1.05882353 -2.5625 0.8125 Z " fill="#394044" transform="translate(364,255)"/>
<path d="M0 0 C0.66 0.33 1.32 0.66 2 1 C0.625 3.5 0.625 3.5 -1 6 C-1.66 6 -2.32 6 -3 6 C-3.33 13.26 -3.66 20.52 -4 28 C-4.33 28 -4.66 28 -5 28 C-5.14601614 24.45877173 -5.2343056 20.91832356 -5.3125 17.375 C-5.35439453 16.37597656 -5.39628906 15.37695312 -5.43945312 14.34765625 C-5.57756696 6.00558036 -5.57756696 6.00558036 -2.48046875 2.2890625 C-1.66191406 1.53367188 -0.84335938 0.77828125 0 0 Z " fill="#DE925F" transform="translate(162,229)"/>
<path d="M0 0 C2.64 0 5.28 0 8 0 C8.1875 2.375 8.1875 2.375 8 5 C7.01 5.66 6.02 6.32 5 7 C5 6.34 5 5.68 5 5 C2.525 4.01 2.525 4.01 0 3 C0 2.01 0 1.02 0 0 Z " fill="#353B3E" transform="translate(211,234)"/>
<path d="M0 0 C0 0.66 0 1.32 0 2 C-1.65 2.33 -3.3 2.66 -5 3 C-5 5.31 -5 7.62 -5 10 C-5.99 10 -6.98 10 -8 10 C-7.67 9.67 -7.34 9.34 -7 9 C-7.08963062 7.30858344 -7.24577676 5.62040398 -7.4375 3.9375 C-7.53933594 3.01839844 -7.64117187 2.09929687 -7.74609375 1.15234375 C-7.82988281 0.44207031 -7.91367187 -0.26820313 -8 -1 C-4.37673261 -2.2077558 -3.35853631 -1.54311128 0 0 Z " fill="#4E5356" transform="translate(274,244)"/>
<path d="M0 0 C1.32 0 2.64 0 4 0 C4 0.66 4 1.32 4 2 C4.99 2.33 5.98 2.66 7 3 C6.67 3.99 6.34 4.98 6 6 C4.35 6.33 2.7 6.66 1 7 C0.34 5.02 -0.32 3.04 -1 1 C-0.67 0.67 -0.34 0.34 0 0 Z " fill="#686D6F" transform="translate(329,240)"/>
<path d="M0 0 C1.65 0 3.3 0 5 0 C4.82374165 2.37948772 4.30280227 3.70225849 2.59765625 5.37890625 C1.09350908 6.62115486 -0.45129851 7.81376056 -2 9 C-2.33 7.68 -2.66 6.36 -3 5 C-2.34 5 -1.68 5 -1 5 C-0.67 3.35 -0.34 1.7 0 0 Z " fill="#5C6369" transform="translate(295,240)"/>
<path d="M0 0 C1.02165961 3.06497883 0.9831418 4.3841348 0.5625 7.5 C0.22541099 10.06016973 0 12.40899698 0 15 C0.99 15.33 1.98 15.66 3 16 C3 16.66 3 17.32 3 18 C2.34 18 1.68 18 1 18 C1 17.34 1 16.68 1 16 C0.34 16 -0.32 16 -1 16 C-3.23629743 11.65895204 -3.03087613 8.72484891 -2 4 C-0.9375 1.5625 -0.9375 1.5625 0 0 Z " fill="#888A8B" transform="translate(228,242)"/>
<path d="M0 0 C1.67542976 0.28604898 3.34385343 0.61781233 5 1 C4.4375 2.9375 4.4375 2.9375 3 5 C-0.625 5.75 -0.625 5.75 -4 6 C-1.125 1.125 -1.125 1.125 0 0 Z " fill="#31383D" transform="translate(237,239)"/>
<path d="M0 0 C2.64 0 5.28 0 8 0 C8.33 1.32 8.66 2.64 9 4 C2.25 4.125 2.25 4.125 0 3 C0 2.01 0 1.02 0 0 Z " fill="#F47724" transform="translate(131,265)"/>
<path d="M0 0 C-0.804375 0.61875 -1.60875 1.2375 -2.4375 1.875 C-5.03874519 3.74164041 -5.03874519 3.74164041 -6 6 C-5.34 6.66 -4.68 7.32 -4 8 C-4.99 8.99 -5.98 9.98 -7 11 C-7.144375 9.88625 -7.28875 8.7725 -7.4375 7.625 C-7.78372035 4.17857953 -7.78372035 4.17857953 -9 2 C-5.86501708 0.14223235 -3.62528568 -0.20140476 0 0 Z " fill="#7B8283" transform="translate(240,238)"/>
<path d="M0 0 C0.99 0.33 1.98 0.66 3 1 C3.33 2.98 3.66 4.96 4 7 C1.525 6.01 1.525 6.01 -1 5 C-0.67 3.35 -0.34 1.7 0 0 Z M-5 4 C-3.68 4.33 -2.36 4.66 -1 5 C-1 5.66 -1 6.32 -1 7 C-1.99 7.33 -2.98 7.66 -4 8 C-4.33 6.68 -4.66 5.36 -5 4 Z " fill="#585C5D" transform="translate(219,235)"/>
<path d="M0 0 C0.33 0 0.66 0 1 0 C1 2.64 1 5.28 1 8 C6.445 7.505 6.445 7.505 12 7 C12 8.98 12 10.96 12 13 C11.34 12.67 10.68 12.34 10 12 C10 11.01 10 10.02 10 9 C6.7 9 3.4 9 0 9 C0 6.03 0 3.06 0 0 Z " fill="#ED7C35" transform="translate(130,225)"/>
<path d="M0 0 C0.99 0.66 1.98 1.32 3 2 C2.67 4.31 2.34 6.62 2 9 C-0.31 9 -2.62 9 -5 9 C-4.34 8.67 -3.68 8.34 -3 8 C-2.67 7.01 -2.34 6.02 -2 5 C-1.01 5 -0.02 5 1 5 C0.67 3.35 0.34 1.7 0 0 Z " fill="#767D80" transform="translate(284,253)"/>
<path d="M0 0 C0.33 0 0.66 0 1 0 C1.19573608 1.43640171 1.38127816 2.87419504 1.5625 4.3125 C1.66691406 5.11300781 1.77132813 5.91351563 1.87890625 6.73828125 C2 9 2 9 1 12 C0.34 12 -0.32 12 -1 12 C-1 11.34 -1 10.68 -1 10 C-1.66 10 -2.32 10 -3 10 C-2.01 6.7 -1.02 3.4 0 0 Z " fill="#5F6869" transform="translate(274,244)"/>
<path d="M0 0 C2.475 0.495 2.475 0.495 5 1 C5.33 1.99 5.66 2.98 6 4 C5.01 4.99 4.02 5.98 3 7 C2.01 6.67 1.02 6.34 0 6 C0 4.02 0 2.04 0 0 Z " fill="#323A3D" transform="translate(353,244)"/>
<path d="M0 0 C0 1.65 0 3.3 0 5 C-1.98 5 -3.96 5 -6 5 C-6.33 5.66 -6.66 6.32 -7 7 C-7 5.35 -7 3.7 -7 2 C-1.125 0 -1.125 0 0 0 Z " fill="#32393E" transform="translate(386,240)"/>
<path d="M0 0 C2.31 0 4.62 0 7 0 C-2 6 -2 6 -5 6 C-4.67 4.68 -4.34 3.36 -4 2 C-2.68 2 -1.36 2 0 2 C0 1.34 0 0.68 0 0 Z " fill="#E9955D" transform="translate(165,263)"/>
<path d="M0 0 C1.4540625 0.0309375 1.4540625 0.0309375 2.9375 0.0625 C3.2675 1.3825 3.5975 2.7025 3.9375 4.0625 C1.6275 4.0625 -0.6825 4.0625 -3.0625 4.0625 C-3.3925 3.0725 -3.7225 2.0825 -4.0625 1.0625 C-3.0625 0.0625 -3.0625 0.0625 0 0 Z " fill="#374045" transform="translate(234.0625,256.9375)"/>
<path d="M0 0 C3.63 0 7.26 0 11 0 C10.01 0.495 10.01 0.495 9 1 C9 1.66 9 2.32 9 3 C7.02 3.33 5.04 3.66 3 4 C3 3.34 3 2.68 3 2 C2.01 1.34 1.02 0.68 0 0 Z " fill="#323A3E" transform="translate(334,257)"/>
<path d="M0 0 C-0.99 0.495 -0.99 0.495 -2 1 C-2 1.99 -2 2.98 -2 4 C-2.66 4 -3.32 4 -4 4 C-4.33 4.66 -4.66 5.32 -5 6 C-5.99 5.67 -6.98 5.34 -8 5 C-7.625 3.0625 -7.625 3.0625 -7 1 C-4.53721199 -0.231394 -2.7204945 -0.07159196 0 0 Z " fill="#4B5258" transform="translate(264,242)"/>
<path d="M0 0 C1.60407328 -0.02708567 3.2082785 -0.04643483 4.8125 -0.0625 C5.70582031 -0.07410156 6.59914062 -0.08570313 7.51953125 -0.09765625 C10 0 10 0 13 1 C13 1.66 13 2.32 13 3 C11.39504433 2.88557539 9.79101881 2.75805306 8.1875 2.625 C7.29417969 2.55539062 6.40085938 2.48578125 5.48046875 2.4140625 C3 2 3 2 0 0 Z " fill="#EC955B" transform="translate(141,271)"/>
<path d="M0 0 C0.99 0 1.98 0 3 0 C3.66 1.65 4.32 3.3 5 5 C4.34 5 3.68 5 3 5 C2.67 5.66 2.34 6.32 2 7 C1.34 4.69 0.68 2.38 0 0 Z M-2 1 C-1.34 1 -0.68 1 0 1 C-0.33 1.99 -0.66 2.98 -1 4 C-1.33 3.01 -1.66 2.02 -2 1 Z M7 2 C7.33 2.66 7.66 3.32 8 4 C7.01 3.67 6.02 3.34 5 3 C5.66 2.67 6.32 2.34 7 2 Z " fill="#30373D" transform="translate(378,254)"/>
<path d="M0 0 C-0.33 2.97 -0.66 5.94 -1 9 C-1.33 9 -1.66 9 -2 9 C-2.061875 8.05125 -2.12375 7.1025 -2.1875 6.125 C-2.455625 5.09375 -2.72375 4.0625 -3 3 C-5.46255685 1.54708727 -5.46255685 1.54708727 -8 1 C-8 0.67 -8 0.34 -8 0 C-2.25 -1.125 -2.25 -1.125 0 0 Z " fill="#767A7C" transform="translate(244,244)"/>
<path d="M0 0 C4.75 1.875 4.75 1.875 7 3 C6.67 3.66 6.34 4.32 6 5 C3 6 3 6 0.8125 5.0625 C0.214375 4.711875 -0.38375 4.36125 -1 4 C-0.67 2.68 -0.34 1.36 0 0 Z " fill="#595F64" transform="translate(241,239)"/>
<path d="M0 0 C1.65 1.65 3.3 3.3 5 5 C4.67 5.66 4.34 6.32 4 7 C1.5625 6.1875 1.5625 6.1875 -1 5 C-1.33 4.01 -1.66 3.02 -2 2 C-1.34 1.34 -0.68 0.68 0 0 Z " fill="#5D6465" transform="translate(296,252)"/>
<path d="M0 0 C0.66 0.33 1.32 0.66 2 1 C1.16244776 3.51265671 0.20811696 5.65927339 -1 8 C-1.33 8.66 -1.66 9.32 -2 10 C-2.33 9.67 -2.66 9.34 -3 9 C-2.4 2.4 -2.4 2.4 0 0 Z " fill="#31373A" transform="translate(246,243)"/>
<path d="M0 0 C1.32 0.66 2.64 1.32 4 2 C2.74458443 4.51083114 1.49936512 4.87125446 -1 6 C-1.66 5.01 -2.32 4.02 -3 3 C-2.01 2.67 -1.02 2.34 0 2 C0 1.34 0 0.68 0 0 Z " fill="#32383B" transform="translate(218,240)"/>
<path d="M0 0 C0.66 0.33 1.32 0.66 2 1 C2 2.65 2 4.3 2 6 C0.68 5.67 -0.64 5.34 -2 5 C-2 2 -2 2 0 0 Z " fill="#555A5D" transform="translate(378,255)"/>
<path d="M0 0 C1.5625 1.1875 1.5625 1.1875 3 3 C2.6875 5.6875 2.6875 5.6875 2 8 C0.4375 6.8125 0.4375 6.8125 -1 5 C-0.6875 2.3125 -0.6875 2.3125 0 0 Z " fill="#42474B" transform="translate(215,244)"/>
<path d="M0 0 C0.66 0 1.32 0 2 0 C2 0.66 2 1.32 2 2 C2.639375 2.12375 3.27875 2.2475 3.9375 2.375 C4.618125 2.58125 5.29875 2.7875 6 3 C6.33 3.66 6.66 4.32 7 5 C4.03 4.505 4.03 4.505 1 4 C0.67 2.68 0.34 1.36 0 0 Z " fill="#EAA671" transform="translate(146,227)"/>
</svg>
