<svg xmlns="http://www.w3.org/2000/svg" width="430" height="430" fill="none" viewBox="0 0 430 430"><path fill="#ffc738" d="M161.222 98.152C176.654 82.297 194.677 63.78 205.166 20c27.982 16.155 45.596 43.363 50.52 72.925a103.6 103.6 0 0 1-2.225 44.309 111.2 111.2 0 0 0 28.622-23.185 88.5 88.5 0 0 1 16.12 28.059 88.5 88.5 0 0 1 4.963 29.307c0 48.923-39.66 88.582-88.584 88.582-48.923 0-88.583-39.659-88.583-88.582v-.143q0-.281.003-.563.005-.648.019-1.295c.303-13.645 3.691-26.529 9.494-37.982a88.6 88.6 0 0 1 10.478-16.078c4.42-6.097 9.655-11.475 15.229-17.202"/><path fill="#b26836" d="M66.577 285.053c-4.289 16.004 5.209 32.455 21.213 36.743l241.481 64.705c16.004 4.288 32.454-5.21 36.743-21.214 4.288-16.004-5.21-32.454-21.214-36.742L103.319 263.84c-16.004-4.288-32.454 5.209-36.743 21.213"/><path fill="#b26836" d="M66.577 285.053c-4.289 16.004 5.209 32.455 21.213 36.743l241.481 64.705c16.004 4.288 32.454-5.21 36.743-21.214 4.288-16.004-5.21-32.454-21.214-36.742L103.319 263.84c-16.004-4.288-32.454 5.209-36.743 21.213" opacity=".5" style="mix-blend-mode:multiply"/><path fill="#f24c00" d="M253.47 221.406c0 21.315-17.279 38.595-38.594 38.595s-38.595-17.28-38.595-38.595 38.595-71.675 38.595-71.675 38.594 50.36 38.594 71.675"/><path fill="#ffc738" d="M205.166 20c-10.489 43.78-28.512 62.297-43.944 78.152-5.574 5.727-10.809 11.105-15.229 17.202a88.6 88.6 0 0 0-10.478 16.078c-5.803 11.453-9.191 24.337-9.494 37.982a93 93 0 0 0-.022 1.858v.143c0 48.923 39.66 88.582 88.583 88.582 4.243 0 8.417-.298 12.5-.875-43.004-6.073-76.083-43.027-76.083-87.707v-.143q0-.281.003-.563.005-.648.019-1.295c.303-13.645 3.691-26.529 9.494-37.982a88.6 88.6 0 0 1 10.478-16.078c4.42-6.097 9.655-11.475 15.229-17.202 13.459-13.828 28.889-29.681 39.573-62.552A104 104 0 0 0 205.166 20" opacity=".5" style="mix-blend-mode:multiply"/><path fill="#f24c00" d="M227.375 167.214c-11.273 16.62-26.095 40.983-26.095 54.192 0 16.941 10.915 31.332 26.095 36.525a38.5 38.5 0 0 1-12.5 2.07c-21.315 0-38.595-17.28-38.595-38.595s38.595-71.675 38.595-71.675 5.582 7.284 12.5 17.483" opacity=".5" style="mix-blend-mode:multiply"/><path fill="#b26836" d="M67.268 282.82c3.19 8.994 10.607 16.319 20.522 18.976L329.27 366.5c15.245 4.085 30.894-4.339 36.051-18.979a29.86 29.86 0 0 1 .692 17.766c-4.289 16.004-20.739 25.502-36.743 21.213L87.79 321.796c-16.004-4.289-25.502-20.739-21.214-36.743q.306-1.139.692-2.233" opacity=".5" style="mix-blend-mode:multiply"/><path fill="#b26836" d="M363.426 285.053c4.288 16.004-5.21 32.455-21.214 36.743l-241.481 64.705c-16.004 4.288-32.454-5.21-36.742-21.214-4.289-16.004 5.209-32.454 21.213-36.742l241.481-64.705c16.004-4.288 32.454 5.209 36.743 21.213"/><path fill="#b26836" d="M362.734 282.82c-3.189 8.994-10.607 16.319-20.522 18.976L100.731 366.5c-15.245 4.085-30.894-4.339-36.051-18.979a29.86 29.86 0 0 0-.691 17.766c4.288 16.004 20.738 25.502 36.742 21.213l241.481-64.704c16.004-4.289 25.502-20.739 21.214-36.743a31 31 0 0 0-.692-2.233" opacity=".5" style="mix-blend-mode:multiply"/><path fill="#b26836" d="M122.959 357.547c0 16.568-13.431 30-30 30s-30-13.432-30-30c0-12.666 7.85-23.499 18.948-27.899a29.9 29.9 0 0 1 11.052-2.101c16.569 0 30 13.431 30 30" opacity=".7" style="mix-blend-mode:multiply"/><circle cx="337.041" cy="357.523" r="30" fill="#b26836" opacity=".7" style="mix-blend-mode:multiply"/><path stroke="#121331" stroke-linecap="round" stroke-linejoin="round" stroke-width="7" d="M161.223 98.152C176.655 82.297 194.678 63.78 205.167 20c27.982 16.155 45.596 43.363 50.52 72.925a103.6 103.6 0 0 1-2.225 44.309 111.2 111.2 0 0 0 28.622-23.185 88.5 88.5 0 0 1 16.12 28.059 88.5 88.5 0 0 1 4.963 29.307c0 48.923-39.66 88.582-88.584 88.582-48.923 0-88.583-39.659-88.583-88.582v-.143q0-.281.003-.563.005-.648.019-1.295c.303-13.645 3.69-26.529 9.494-37.982a88.6 88.6 0 0 1 10.478-16.078c4.42-6.097 9.655-11.475 15.229-17.202"/><path stroke="#121331" stroke-linejoin="round" stroke-width="7" d="M253.47 221.406c0 21.315-17.279 38.595-38.594 38.595s-38.595-17.28-38.595-38.595 38.595-71.675 38.595-71.675 38.594 50.36 38.594 71.675Z"/><path stroke="#121331" stroke-linecap="round" stroke-linejoin="round" stroke-miterlimit="10" stroke-width="7" d="M363.427 285.053c4.288 16.004-5.21 32.455-21.214 36.743l-241.481 64.705c-16.004 4.288-32.454-5.21-36.742-21.214-4.289-16.004 5.209-32.454 21.213-36.742l241.481-64.705c16.004-4.288 32.454 5.209 36.743 21.213"/><path stroke="#121331" stroke-linecap="round" stroke-linejoin="round" stroke-miterlimit="10" stroke-width="7" d="m99.09 324.824-11.3-3.028c-16.004-4.288-25.502-20.739-21.214-36.743s20.739-25.501 36.743-21.213l111.683 29.926m0 62.116 114.269 30.619c16.004 4.288 32.454-5.21 36.743-21.214 4.288-16.004-5.21-32.454-21.214-36.742l-13.887-3.721"/><path stroke="#121331" stroke-linecap="round" stroke-linejoin="round" stroke-miterlimit="10" stroke-width="7" d="M337.042 387.523c-16.569 0-30-13.431-30-30 0-16.568 13.431-30 30-30 3.221 0 6.323.508 9.231 1.447M122.96 357.547c0 16.568-13.431 30-30 30s-30-13.432-30-30c0-12.666 7.85-23.499 18.949-27.899a29.9 29.9 0 0 1 11.051-2.101c16.569 0 30 13.431 30 30"/></svg>